<svg xmlns="http://www.w3.org/2000/svg" width="1200" height="630" viewBox="0 0 1200 630">
  <defs>
    <linearGradient id="bg" x1="0%" y1="0%" x2="100%" y2="100%">
      <stop offset="0%" style="stop-color:#0f172a;stop-opacity:1" />
      <stop offset="100%" style="stop-color:#1e293b;stop-opacity:1" />
    </linearGradient>
    <linearGradient id="accent" x1="0%" y1="0%" x2="100%" y2="0%">
      <stop offset="0%" style="stop-color:#3b82f6;stop-opacity:1" />
      <stop offset="100%" style="stop-color:#8b5cf6;stop-opacity:1" />
    </linearGradient>
  </defs>

  <rect width="1200" height="630" fill="url(#bg)"/>

  <pattern id="grid" width="40" height="40" patternUnits="userSpaceOnUse">
    <path d="M 40 0 L 0 0 0 40" fill="none" stroke="#334155" stroke-width="0.5" opacity="0.3"/>
  </pattern>
  <rect width="1200" height="630" fill="url(#grid)"/>

  <circle cx="100" cy="100" r="60" fill="none" stroke="url(#accent)" stroke-width="4"/>
  <path d="M70 100 L90 115 L130 85" fill="none" stroke="#22c55e" stroke-width="6" stroke-linecap="round" stroke-linejoin="round"/>
  <text x="100" y="190" font-family="Arial, sans-serif" font-size="24" fill="#94a3b8" text-anchor="middle">v1.0.0</text>

  <text x="200" y="100" font-family="Arial, sans-serif" font-size="72" font-weight="bold" fill="#f8fafc">SYSMAINT</text>
  <text x="200" y="150" font-family="Arial, sans-serif" font-size="32" fill="#94a3b8">Enterprise Linux System Maintenance</text>

  <g transform="translate(200, 220)">
    <rect x="0" y="0" width="200" height="80" rx="10" fill="#1e293b" stroke="#3b82f6" stroke-width="2"/>
    <text x="100" y="35" font-family="Arial, sans-serif" font-size="28" text-anchor="middle" fill="#f8fafc">🔄</text>
    <text x="100" y="65" font-family="Arial, sans-serif" font-size="16" text-anchor="middle" fill="#94a3b8">Auto Updates</text>

    <rect x="250" y="0" width="200" height="80" rx="10" fill="#1e293b" stroke="#8b5cf6" stroke-width="2"/>
    <text x="350" y="35" font-family="Arial, sans-serif" font-size="28" text-anchor="middle" fill="#f8fafc">🧹</text>
    <text x="350" y="65" font-family="Arial, sans-serif" font-size="16" text-anchor="middle" fill="#94a3b8">Cleanup</text>

    <rect x="500" y="0" width="200" height="80" rx="10" fill="#1e293b" stroke="#22c55e" stroke-width="2"/>
    <text x="600" y="35" font-family="Arial, sans-serif" font-size="28" text-anchor="middle" fill="#f8fafc">🔒</text>
    <text x="600" y="65" font-family="Arial, sans-serif" font-size="16" text-anchor="middle" fill="#94a3b8">Security</text>

    <rect x="750" y="0" width="200" height="80" rx="10" fill="#1e293b" stroke="#f59e0b" stroke-width="2"/>
    <text x="850" y="35" font-family="Arial, sans-serif" font-size="28" text-anchor="middle" fill="#f8fafc">⚡</text>
    <text x="850" y="65" font-family="Arial, sans-serif" font-size="16" text-anchor="middle" fill="#94a3b8">Fast</text>
  </g>

  <g transform="translate(200, 360)">
    <text x="0" y="0" font-family="Arial, sans-serif" font-size="24" fill="#22c55e">✓</text>
    <text x="40" y="0" font-family="Arial, sans-serif" font-size="22" fill="#f8fafc">9 Linux Distributions</text>

    <text x="300" y="0" font-family="Arial, sans-serif" font-size="24" fill="#22c55e">✓</text>
    <text x="340" y="0" font-family="Arial, sans-serif" font-size="22" fill="#f8fafc">500+ Tests</text>

    <text x="550" y="0" font-family="Arial, sans-serif" font-size="24" fill="#22c55e">✓</text>
    <text x="590" y="0" font-family="Arial, sans-serif" font-size="22" fill="#f8fafc">&lt;3.5s Runtime</text>
  </g>

  <rect x="200" y="400" width="800" height="70" rx="10" fill="#0f172a" stroke="#334155" stroke-width="2"/>
  <text x="230" y="445" font-family="monospace" font-size="22" fill="#22c55e">$</text>
  <text x="260" y="445" font-family="monospace" font-size="20" fill="#f8fafc">sudo ./sysmaint --dry-run</text>

  <text x="600" y="550" font-family="Arial, sans-serif" font-size="18" fill="#64748b" text-anchor="middle">One command. All distros. Zero hassle.</text>

  <text x="600" y="590" font-family="monospace" font-size="18" fill="#3b82f6" text-anchor="middle">github.com/Harery/SYSMAINT</text>

  <path d="M0 0 L200 0 L0 200 Z" fill="url(#accent)" opacity="0.2"/>
</svg>
